<?xml version="1.0" encoding="iso-8859-1"?>
<!-- Generator: Adobe Illustrator 19.0.0, SVG Export Plug-In . SVG Version: 6.00 Build 0)  -->
<svg version="1.1" id="Capa_1" xmlns="http://www.w3.org/2000/svg" xmlns:xlink="http://www.w3.org/1999/xlink" x="0px" y="0px"
	 viewBox="0 0 60.025 60.025" style="enable-background:new 0 0 60.025 60.025;" xml:space="preserve">
<g>
	<g>
		<path d="M4.012,25.025h3v13h2v-13h42v13h2v-13h3c0.6,0,1-0.4,1-1v-3.7c0-0.3-0.1-0.6-0.4-0.8l-26-19.3c-0.4-0.3-0.8-0.3-1.2,0
			l-25.3,18.8h-0.1v0.1l-0.6,0.4c-0.3,0.2-0.4,0.5-0.4,0.8v3.7C3.012,24.625,3.413,25.025,4.012,25.025z M30.012,2.225l25,18.6v2.2
			h-3h-44h-3v-2h40v-2h-37.6L30.012,2.225z"/>
		<rect x="28.012" y="9.025" width="4" height="2"/>
		<rect x="25.012" y="13.025" width="10" height="2"/>
		<rect x="11.012" y="27.025" width="2" height="2"/>
		<rect x="15.012" y="27.025" width="2" height="2"/>
		<rect x="19.012" y="27.025" width="2" height="2"/>
		<rect x="23.012" y="27.025" width="2" height="2"/>
		<rect x="27.012" y="27.025" width="2" height="2"/>
		<rect x="31.012" y="27.025" width="2" height="2"/>
		<rect x="35.012" y="27.025" width="2" height="2"/>
		<rect x="39.012" y="27.025" width="2" height="2"/>
		<rect x="43.012" y="27.025" width="2" height="2"/>
		<rect x="47.012" y="27.025" width="2" height="2"/>
		<path d="M56.012,58.025v-12.6l1.3,1.3l1.4-1.4l-3-3c-0.4-0.4-1-0.4-1.4,0l-3,3l1.4,1.4l1.3-1.3v12.6h-10v-22.6l1.3,1.3l1.4-1.4
			l-3-3c-0.4-0.4-1-0.4-1.4,0l-3,3l1.4,1.4l1.3-1.3v22.6h-24v-22.6l1.3,1.3l1.4-1.4l-3-3c-0.4-0.4-1-0.4-1.4,0l-3,3l1.4,1.4l1.3-1.3
			v22.6h-10v-12.6l1.3,1.3l1.4-1.4l-3-3c-0.4-0.4-1-0.4-1.4,0l-3,3l1.4,1.4l1.3-1.3v12.6h-4v2h60v-2H56.012z"/>
		<path d="M29.012,36.025h2c1.7,0,3,1.3,3,3h2c0-2.8-2.2-5-5-5v-2h-2v2c-2.8,0-5,2.2-5,5s2.2,5,5,5h2c1.7,0,3,1.3,3,3s-1.3,3-3,3h-2
			c-1.7,0-3-1.3-3-3h-2c0,2.8,2.2,5,5,5v2h2v-2c2.8,0,5-2.2,5-5s-2.2-5-5-5h-2c-1.7,0-3-1.3-3-3S27.312,36.025,29.012,36.025z"/>
	</g>
</g>
<g>
</g>
<g>
</g>
<g>
</g>
<g>
</g>
<g>
</g>
<g>
</g>
<g>
</g>
<g>
</g>
<g>
</g>
<g>
</g>
<g>
</g>
<g>
</g>
<g>
</g>
<g>
</g>
<g>
</g>
</svg>
